<svg width="403" height="403" viewBox="0 0 403 403" fill="none" xmlns="http://www.w3.org/2000/svg">
<path d="M50.2998 363.048C31.3566 352.111 24.8661 327.888 35.803 308.945L182.823 54.2999C193.759 35.3566 217.982 28.8661 236.925 39.803V39.803C255.869 50.7399 262.359 74.9626 251.422 93.9059L104.403 348.551C93.4658 367.494 69.2431 373.985 50.2998 363.048V363.048Z" fill="#1E1E1E"/>
<path d="M164.23 363.342C145.287 352.405 138.796 328.183 149.733 309.239L241.266 150.7C252.203 131.757 276.425 125.266 295.369 136.203V136.203C314.312 147.14 320.802 171.363 309.865 190.306L218.333 348.845C207.396 367.789 183.173 374.279 164.23 363.342V363.342Z" fill="#1E1E1E"/>
<path d="M278.139 363.624C259.196 352.687 252.705 328.465 263.642 309.521L298.63 248.921C309.567 229.978 333.789 223.487 352.733 234.424V234.424C371.676 245.361 378.166 269.584 367.229 288.527L332.242 349.127C321.305 368.071 297.082 374.561 278.139 363.624V363.624Z" fill="#1E1E1E"/>
</svg>
